<?xml version="1.0" encoding="UTF-8" standalone="no"?>
<!-- Created with Inkscape (http://www.inkscape.org/) -->

<svg
   width="210mm"
   height="297mm"
   viewBox="0 0 210 297"
   version="1.1"
   id="svg5"
   sodipodi:docname="Scratchpad.svg"
   inkscape:version="1.2.2 (b0a8486, 2022-12-01)"
   xmlns:inkscape="http://www.inkscape.org/namespaces/inkscape"
   xmlns:sodipodi="http://sodipodi.sourceforge.net/DTD/sodipodi-0.dtd"
   xmlns:xlink="http://www.w3.org/1999/xlink"
   xmlns="http://www.w3.org/2000/svg"
   xmlns:svg="http://www.w3.org/2000/svg">
  <sodipodi:namedview
     id="namedview7"
     pagecolor="#ffffff"
     bordercolor="#000000"
     borderopacity="0.25"
     inkscape:showpageshadow="2"
     inkscape:pageopacity="0.0"
     inkscape:pagecheckerboard="0"
     inkscape:deskcolor="#d1d1d1"
     inkscape:document-units="mm"
     showgrid="false"
     inkscape:zoom="7.9999999"
     inkscape:cx="352.75"
     inkscape:cy="268.5625"
     inkscape:window-width="2560"
     inkscape:window-height="1371"
     inkscape:window-x="0"
     inkscape:window-y="0"
     inkscape:window-maximized="1"
     inkscape:current-layer="layer1" />
  <defs
     id="defs2">
    <linearGradient
       inkscape:collect="always"
       id="linearGradient8315">
      <stop
         style="stop-color:#d2b400;stop-opacity:1;"
         offset="0"
         id="stop8311" />
      <stop
         style="stop-color:#ac801b;stop-opacity:1;"
         offset="1"
         id="stop8313" />
    </linearGradient>
    <linearGradient
       inkscape:collect="always"
       id="linearGradient8176">
      <stop
         style="stop-color:#ae6c00;stop-opacity:1;"
         offset="0"
         id="stop8172" />
      <stop
         style="stop-color:#ffd46d;stop-opacity:1;"
         offset="1"
         id="stop8174" />
    </linearGradient>
    <linearGradient
       inkscape:collect="always"
       id="linearGradient6757">
      <stop
         style="stop-color:#ffdf17;stop-opacity:1;"
         offset="0"
         id="stop6753" />
      <stop
         style="stop-color:#d19a20;stop-opacity:1;"
         offset="1"
         id="stop6755" />
    </linearGradient>
    <inkscape:path-effect
       effect="mirror_symmetry"
       start_point="140.35629,98.495144"
       end_point="140.35629,117.3117"
       center_point="140.35629,107.90342"
       id="path-effect6685"
       is_visible="true"
       lpeversion="1.2"
       lpesatellites=""
       mode="free"
       discard_orig_path="false"
       fuse_paths="true"
       oposite_fuse="false"
       split_items="false"
       split_open="false"
       link_styles="false" />
    <linearGradient
       inkscape:collect="always"
       id="linearGradient6563">
      <stop
         style="stop-color:#4d7b76;stop-opacity:1;"
         offset="0"
         id="stop6559" />
      <stop
         style="stop-color:#2d2626;stop-opacity:1;"
         offset="1"
         id="stop6561" />
    </linearGradient>
    <linearGradient
       inkscape:collect="always"
       id="linearGradient6557">
      <stop
         style="stop-color:#676e5a;stop-opacity:1;"
         offset="0"
         id="stop6553" />
      <stop
         style="stop-color:#1c1818;stop-opacity:1;"
         offset="1"
         id="stop6555" />
    </linearGradient>
    <inkscape:path-effect
       effect="mirror_symmetry"
       start_point="70.106412,49.586196"
       end_point="70.106412,70.378907"
       center_point="70.106412,59.982551"
       id="path-effect6549"
       is_visible="true"
       lpeversion="1.2"
       lpesatellites=""
       mode="free"
       discard_orig_path="false"
       fuse_paths="true"
       oposite_fuse="false"
       split_items="false"
       split_open="false"
       link_styles="false" />
    <inkscape:path-effect
       effect="mirror_symmetry"
       start_point="70.106412,49.586196"
       end_point="70.106412,70.378907"
       center_point="70.106412,59.982551"
       id="path-effect6541"
       is_visible="true"
       lpeversion="1.2"
       lpesatellites=""
       mode="free"
       discard_orig_path="false"
       fuse_paths="true"
       oposite_fuse="false"
       split_items="false"
       split_open="false"
       link_styles="false" />
    <linearGradient
       inkscape:collect="always"
       id="linearGradient6533">
      <stop
         style="stop-color:#645870;stop-opacity:1;"
         offset="0"
         id="stop6529" />
      <stop
         style="stop-color:#271f3b;stop-opacity:1;"
         offset="1"
         id="stop6531" />
    </linearGradient>
    <inkscape:path-effect
       effect="mirror_symmetry"
       start_point="70.106412,49.586196"
       end_point="70.106412,70.378907"
       center_point="70.106412,59.982551"
       id="path-effect6527"
       is_visible="true"
       lpeversion="1.2"
       lpesatellites=""
       mode="free"
       discard_orig_path="false"
       fuse_paths="true"
       oposite_fuse="false"
       split_items="false"
       split_open="false"
       link_styles="false" />
    <linearGradient
       inkscape:collect="always"
       id="linearGradient2743">
      <stop
         style="stop-color:#7e7575;stop-opacity:1;"
         offset="0"
         id="stop2739" />
      <stop
         style="stop-color:#aaa1a1;stop-opacity:1;"
         offset="1"
         id="stop2741" />
    </linearGradient>
    <linearGradient
       inkscape:collect="always"
       id="linearGradient2719">
      <stop
         style="stop-color:#897f7f;stop-opacity:1;"
         offset="0"
         id="stop2715" />
      <stop
         style="stop-color:#aaa1a1;stop-opacity:1;"
         offset="1"
         id="stop2717" />
    </linearGradient>
    <linearGradient
       inkscape:collect="always"
       xlink:href="#linearGradient2743"
       id="linearGradient2727"
       gradientUnits="userSpaceOnUse"
       x1="29.217854"
       y1="51.666"
       x2="50.692272"
       y2="77.126503"
       gradientTransform="translate(1.0583333,1.0583333)" />
    <linearGradient
       inkscape:collect="always"
       xlink:href="#linearGradient2719"
       id="linearGradient2737"
       gradientUnits="userSpaceOnUse"
       gradientTransform="matrix(0.97065697,0,0,0.98518094,2.5243269,2.1943234)"
       x1="29.217854"
       y1="51.666"
       x2="50.692272"
       y2="77.126503" />
    <linearGradient
       inkscape:collect="always"
       xlink:href="#linearGradient6563"
       id="linearGradient6535"
       x1="64.897331"
       y1="61.548638"
       x2="75.315493"
       y2="61.548638"
       gradientUnits="userSpaceOnUse" />
    <linearGradient
       inkscape:collect="always"
       xlink:href="#linearGradient6533"
       id="linearGradient6543"
       gradientUnits="userSpaceOnUse"
       x1="64.897331"
       y1="61.548638"
       x2="75.315493"
       y2="61.548638" />
    <linearGradient
       inkscape:collect="always"
       xlink:href="#linearGradient6557"
       id="linearGradient6551"
       gradientUnits="userSpaceOnUse"
       x1="69.712128"
       y1="61.548637"
       x2="75.315493"
       y2="61.548638" />
    <radialGradient
       inkscape:collect="always"
       xlink:href="#linearGradient6757"
       id="radialGradient6759"
       cx="140.35629"
       cy="107.90342"
       fx="140.35629"
       fy="107.90342"
       r="105.78682"
       gradientTransform="matrix(1.3700197,-0.01485645,9.6435707e-4,0.08893098,-52.038653,100.39266)"
       gradientUnits="userSpaceOnUse" />
    <linearGradient
       inkscape:collect="always"
       xlink:href="#linearGradient8176"
       id="linearGradient8178"
       x1="33.267487"
       y1="107.90027"
       x2="247.44509"
       y2="107.90027"
       gradientUnits="userSpaceOnUse" />
    <radialGradient
       inkscape:collect="always"
       xlink:href="#linearGradient8315"
       id="radialGradient8290"
       gradientUnits="userSpaceOnUse"
       gradientTransform="matrix(1.322946,-0.00199812,4.8743858e-4,0.32272696,-25.320193,122.54114)"
       cx="47.22427"
       cy="153.12929"
       fx="47.22427"
       fy="153.12929"
       r="15.779353" />
    <radialGradient
       inkscape:collect="always"
       xlink:href="#linearGradient8176"
       id="radialGradient8292"
       gradientUnits="userSpaceOnUse"
       gradientTransform="matrix(0.99998247,0,0,0.28721449,-9.6740202,127.88724)"
       cx="50.563885"
       cy="143.24139"
       fx="50.563885"
       fy="143.24139"
       r="15.779353" />
    <radialGradient
       inkscape:collect="always"
       xlink:href="#linearGradient6757"
       id="radialGradient8306"
       gradientUnits="userSpaceOnUse"
       gradientTransform="matrix(1.322946,-0.00199812,4.8743858e-4,0.32272696,-25.211414,125.4283)"
       cx="47.22427"
       cy="153.12929"
       fx="47.22427"
       fy="153.12929"
       r="15.779353" />
    <radialGradient
       inkscape:collect="always"
       xlink:href="#linearGradient8176"
       id="radialGradient8308"
       gradientUnits="userSpaceOnUse"
       gradientTransform="matrix(0.99998247,0,0,0.28721449,-9.5652413,130.7744)"
       cx="50.563885"
       cy="143.24139"
       fx="50.563885"
       fy="143.24139"
       r="15.779353" />
  </defs>
  <g
     inkscape:label="Layer 1"
     inkscape:groupmode="layer"
     id="layer1">
    <path
       id="path2723"
       style="fill:url(#linearGradient2727);fill-opacity:1;stroke:none;stroke-width:0.15875;stroke-linecap:round;stroke-linejoin:round;stroke-opacity:0.101961"
       d="m 25.057028,46.029319 c 0,0 0.101878,-4.880565 4.357666,-7.799276 0.285964,-0.122602 1.67843,0.617756 1.67843,0.617756 0,0 -0.181205,-1.176118 0.09113,-1.598314 1.713908,-0.756247 3.819525,-1.119422 6.645777,-1.119422 2.180195,0 4.374384,0.561369 5.881826,1.04066 -6.08e-4,0.02414 0.219865,0.387909 0.219865,0.387909 0,0 0.45845,-0.102885 0.516766,-0.129785 6.586338,2.532171 6.319636,8.600451 6.319636,8.600451 l -0.07607,2.349288 -0.244724,0.224139 0.201794,1.101497 -0.207851,6.41871 0.151473,3.399343 c -0.971043,1.092752 -0.518069,1.932282 0.122028,2.738538 l 0.304103,6.824632 c 0,0 -0.468826,6.958321 -1.394867,7.448472 -0.435633,0.599189 -23.295818,1.551839 -23.892894,1.031868 -0.327406,-0.365865 -0.42369,-5.382145 -0.42369,-5.382145 l -0.250398,-6.779136 c -0.01767,-0.249439 0.735905,-0.575771 0.719973,-0.824979 -0.130182,-2.036226 -0.973287,-3.987794 -0.998615,-6.01006 -0.04657,-3.718118 0.0263,-7.115306 0.237818,-10.79906 0.01923,-0.23112 1.314164,-0.09534 1.314164,-0.09534 0,0 -1.314164,-0.466201 -1.314164,-0.687684 z"
       sodipodi:nodetypes="ccccscccccccccccccccsscccc" />
    <path
       id="path2735"
       style="fill:url(#linearGradient2737);fill-opacity:1;stroke:none;stroke-width:0.15875;stroke-linecap:round;stroke-linejoin:round;stroke-opacity:0.101961"
       d="m 25.818827,46.498881 c 0,0 0.0064,-4.687517 4.137317,-7.562976 l 1.62918,0.608602 0.08846,-1.574629 c 1.663616,-0.74504 3.79993,-1.223555 6.543252,-1.223555 2.116221,0 3.875908,0.284751 5.339117,0.756939 -5.9e-4,0.02378 0.213413,0.382161 0.213413,0.382161 0,0 0.444998,-0.101361 0.501603,-0.127862 6.393075,2.494647 6.504317,8.7413 6.504317,8.7413 l -0.07384,2.314473 -0.237543,0.220818 0.195873,1.085174 -0.201752,6.323591 0.147028,3.348967 c -0.94255,1.076559 -0.502867,1.903648 0.118447,2.697956 l 0.29518,6.723497 c 0,0 -0.455069,6.855205 -1.353938,7.338093 -0.42285,0.590309 -22.612248,1.528842 -23.191804,1.016577 C 26.155338,77.207563 26.06188,72.26562 26.06188,72.26562 l -0.243051,-6.678676 c -0.01715,-0.245742 0.714311,-0.567238 0.698847,-0.812753 -0.126362,-2.006051 -0.944728,-3.928699 -0.969313,-5.920997 -0.0452,-3.663019 0.06515,-7.305018 0.270466,-10.934182 l 1.275603,-0.09393 -1.275603,-0.677494 z"
       sodipodi:nodetypes="ccccscccccccccccccccsscccc" />
    <path
       id="path5072"
       style="fill:url(#linearGradient6535);fill-opacity:1;stroke-width:0.15875;stroke-linecap:round;stroke-linejoin:round;stroke-opacity:0.101961"
       d="m 70.105469,52.730469 c -2.416449,0.05436 -5.097657,-0.0669 -5.097657,1.498047 0,0.03548 0.0078,0.385306 0.0078,0.404296 0,0.678736 2.164063,0.31715 2.164063,0.808594 0,0.205562 0.02539,0.396995 0.02539,0.806641 0,1.296581 -2.081936,1.404247 -2.304687,2.339844 l 0.109375,10.785156 c 0.326619,0.35383 3.270589,0.72526 5.095703,0.746094 1.825113,-0.02083 4.771036,-0.392264 5.097656,-0.746094 L 75.3125,58.587891 c -0.222751,-0.935597 -2.304688,-1.043263 -2.304688,-2.339844 0,-0.409646 0.02539,-0.601079 0.02539,-0.806641 0,-0.491444 2.164063,-0.129859 2.164063,-0.808594 0,-0.01899 0.0078,-0.368813 0.0078,-0.404296 0,-1.564943 -2.683161,-1.443687 -5.099609,-1.498047 z"
       sodipodi:nodetypes="cssssccccc"
       inkscape:path-effect="#path-effect6527"
       inkscape:original-d="m 64.90073,58.588098 c 0.222751,-0.935597 2.305215,-1.043589 2.305215,-2.34017 0,-0.409646 -0.02627,-0.600229 -0.02627,-0.805791 0,-0.491444 -2.163404,-0.131521 -2.163404,-0.810256 0,-0.01899 -0.0087,-0.368641 -0.0087,-0.404124 0,-1.565672 2.684893,-1.442051 5.102219,-1.496602 v 3.866347 13.521856 c -1.824856,-0.02041 -4.77235,-0.393031 -5.099171,-0.747079 z"
       class="UnoptimicedTransforms"
       transform="translate(19.20167,1.3619324)" />
    <path
       id="path6537"
       style="fill:url(#linearGradient6543);fill-opacity:1;stroke-width:0.131927;stroke-linecap:round;stroke-linejoin:round;stroke-opacity:0.101961"
       d="m 63.344971,58.697046 c 0.222751,-0.935597 3.270676,-0.507341 3.857575,-1.663486 0.11316,-0.222917 0.0556,-1.174196 -0.02954,-1.351205 -0.213013,-0.44288 -3.697045,-0.05184 -3.678789,-1.278569 0.0064,-0.430821 -0.01758,0.07903 -0.0087,-0.404124 0.02887,-1.565405 4.203544,-1.090574 6.62087,-1.145125 V 56.720884 70.24274 C 65.602218,70.01642 63.96183,69.854042 63.44123,69.356096 Z m 13.522882,0 c -0.222751,-0.935597 -3.270676,-0.507341 -3.857575,-1.663486 -0.11316,-0.222917 -0.0556,-1.174196 0.02954,-1.351205 0.213013,-0.44288 3.697045,-0.05184 3.678789,-1.278569 -0.0064,-0.430821 0.01758,0.07903 0.0087,-0.404124 -0.02887,-1.565405 -4.203544,-1.090574 -6.62087,-1.145125 v 3.866347 13.521856 c 4.504169,-0.22632 6.144557,-0.388698 6.665157,-0.886644 z"
       sodipodi:nodetypes="cssssccccc"
       inkscape:path-effect="#path-effect6541"
       inkscape:original-d="m 63.344971,58.697046 c 0.222751,-0.935597 3.270676,-0.507341 3.857575,-1.663486 0.11316,-0.222917 0.0556,-1.174196 -0.02954,-1.351205 -0.213013,-0.44288 -3.697045,-0.05184 -3.678789,-1.278569 0.0064,-0.430821 -0.01758,0.07903 -0.0087,-0.404124 0.02887,-1.565405 4.203544,-1.090574 6.62087,-1.145125 V 56.720884 70.24274 C 65.602218,70.01642 63.96183,69.854042 63.44123,69.356096 Z"
       class="UnoptimicedTransforms"
       transform="matrix(1.2033194,0,0,1.2033194,21.220853,-12.402241)" />
    <path
       id="path6545"
       style="fill:url(#linearGradient6551);fill-opacity:1;stroke-width:0.15875;stroke-linecap:round;stroke-linejoin:round;stroke-opacity:0.101961"
       d="m 67.076138,61.638598 c 0.222751,-0.935597 1.5426,-0.316427 1.5426,-1.613008 0,-0.409646 0.158464,-1.154465 0.01575,-1.626472 -1.013327,-1.702653 -1.47341,-0.719237 -1.461152,-1.467496 10e-7,-0.309343 0.182077,-0.893491 0.616718,-0.988568 1.007229,-0.220332 0.634637,-0.109015 2.316331,-0.146965 v 3.866347 10.580304 c -2.219729,-0.08171 -2.756932,-0.359761 -2.933988,-0.55723 z m 6.060548,0 c -0.222751,-0.935597 -1.5426,-0.316427 -1.5426,-1.613008 0,-0.409646 -0.158464,-1.154465 -0.01575,-1.626472 1.013327,-1.702653 1.47341,-0.719237 1.461152,-1.467496 -1e-6,-0.309343 -0.182077,-0.893491 -0.616718,-0.988568 -1.007229,-0.220332 -0.634637,-0.109015 -2.316331,-0.146965 v 3.866347 10.580304 c 2.219729,-0.08171 2.756932,-0.359761 2.933988,-0.55723 z"
       sodipodi:nodetypes="csccsccccc"
       inkscape:path-effect="#path-effect6549"
       inkscape:original-d="m 67.076138,61.638598 c 0.222751,-0.935597 1.5426,-0.316427 1.5426,-1.613008 0,-0.409646 0.158464,-1.154465 0.01575,-1.626472 -1.013327,-1.702653 -1.47341,-0.719237 -1.461152,-1.467496 10e-7,-0.309343 0.182077,-0.893491 0.616718,-0.988568 1.007229,-0.220332 0.634637,-0.109015 2.316331,-0.146965 v 3.866347 10.580304 c -2.219729,-0.08171 -2.756932,-0.359761 -2.933988,-0.55723 z"
       class="UnoptimicedTransforms"
       transform="translate(7.4899818,1.3074138)" />
    <path
       style="fill:url(#radialGradient6759);fill-opacity:1;stroke:url(#linearGradient8178);stroke-width:0.641091;stroke-linecap:round;stroke-linejoin:round;stroke-dasharray:none;stroke-opacity:1"
       d="m 140.35547,99.826172 c 0,0 -2.06956,4.969088 -2.94531,5.443358 -0.9398,0.50895 -3.42219,-1.50518 -5.23828,-0.75 -8.09798,3.36737 -19.35021,8.03286 -37.441411,-0.55664 C 68.801306,91.652009 34.570312,117.3125 34.570312,117.3125 58.810693,105.00137 79.95756,99.677555 90.404297,105.70898 c 17.806043,10.28032 49.951173,5.06641 49.951173,5.06641 0,0 32.14708,5.21391 49.95312,-5.06641 10.44674,-6.031425 31.59361,-0.70761 55.83399,11.60352 0,0 -34.231,-25.660491 -60.16016,-13.34961 -18.0912,8.5895 -29.34342,3.92401 -37.4414,0.55664 -1.8161,-0.75518 -4.29849,1.25895 -5.23829,0.75 -0.87575,-0.47427 -2.94726,-5.443358 -2.94726,-5.443358 z"
       id="path6683"
       sodipodi:nodetypes="csssccsc"
       transform="matrix(0.55998335,0,0,0.55998335,15.211141,51.619102)"
       inkscape:original-d="m 34.569466,117.3117 c 0,0 34.231081,-25.660652 60.160244,-13.34977 18.0912,8.5895 29.3444,3.92473 37.44238,0.55736 1.8161,-0.75518 4.29806,1.25881 5.23786,0.74986 0.87575,-0.47427 2.94634,-5.443462 2.94634,-5.443462 v 10.948942 c 0,0 -32.14569,5.21448 -49.95173,-5.06584 -10.446737,-6.031429 -31.594713,-0.70822 -55.835094,11.60291 z"
       inkscape:path-effect="#path-effect6685"
       class="UnoptimicedTransforms" />
    <ellipse
       style="fill:url(#radialGradient8290);fill-opacity:1;stroke:url(#radialGradient8292);stroke-width:0.359;stroke-linecap:round;stroke-linejoin:round;stroke-dasharray:none;stroke-opacity:1"
       id="ellipse8288"
       cx="39.001614"
       cy="171.36476"
       rx="15.599796"
       ry="4.3525519" />
    <ellipse
       style="fill:url(#radialGradient8290);fill-opacity:1;stroke:url(#radialGradient8292);stroke-width:0.359;stroke-linecap:round;stroke-linejoin:round;stroke-dasharray:none;stroke-opacity:1"
       id="ellipse8294"
       cx="39.001614"
       cy="171.36476"
       rx="15.599796"
       ry="4.3525519" />
    <path
       id="ellipse8304"
       style="fill:url(#radialGradient8306);stroke:url(#radialGradient8308);stroke-width:0.359;stroke-linecap:round;stroke-linejoin:round"
       d="m 54.71019,174.25192 c -4e-6,2.40385 -6.984269,4.35255 -15.599796,4.35255 -8.615527,0 -15.599793,-1.9487 -15.599797,-4.35255 l -0.138321,-2.91984 c 0,0 -0.587224,3.88471 15.601745,3.86183 16.188969,-0.0229 15.629151,-3.91553 15.629151,-3.91553 z"
       sodipodi:nodetypes="cscczcc" />
    <path
       style="fill:none;stroke:#9f7d4b;stroke-width:0.859;stroke-linecap:round;stroke-linejoin:round;stroke-opacity:0.5303309;stroke-dasharray:none"
       d="M 34.539494,117.51324 24.080701,171.00558"
       id="path335" />
    <path
       sodipodi:type="star"
       style="fill:#4cdf94;fill-opacity:1;stroke:#2c3e50;stroke-width:0.4589999;stroke-linecap:round;stroke-linejoin:round;stroke-dasharray:none;stroke-opacity:1"
       id="path7922"
       inkscape:flatsided="false"
       sodipodi:sides="4"
       sodipodi:cx="59.101383"
       sodipodi:cy="54.817711"
       sodipodi:r1="3.215353"
       sodipodi:r2="1.4080344"
       sodipodi:arg1="0.89664337"
       sodipodi:arg2="1.6820416"
       inkscape:rounded="0"
       inkscape:randomized="0"
       d="m 61.108522,57.32966 -2.163453,-1.112618 -2.355635,0.607807 1.112618,-2.163452 -0.607807,-2.355636 2.163453,1.112619 2.355635,-0.607808 -1.112619,2.163453 z"
       inkscape:transform-center-x="-0.00068189936"
       inkscape:transform-center-y="-0.21902746"
       transform="rotate(16.298907,-5.8204754,196.92801)" />
    <path
       style="fill:#4183e1;fill-opacity:1;stroke:#2c3e50;stroke-width:0.458999;stroke-linecap:round;stroke-linejoin:round;stroke-dasharray:none;stroke-opacity:1"
       id="path11659"
       sodipodi:type="arc"
       sodipodi:cx="88.336014"
       sodipodi:cy="78.741249"
       sodipodi:rx="2.8325789"
       sodipodi:ry="2.8325789"
       sodipodi:start="5.2359878"
       sodipodi:end="5.1905011"
       sodipodi:arc-type="arc"
       d="m 89.752303,76.288164 a 2.8325789,2.8325789 0 0 1 1.052743,3.841388 2.8325789,2.8325789 0 0 1 -3.829169,1.096356 2.8325789,2.8325789 0 0 1 -1.139828,-3.816454 2.8325789,2.8325789 0 0 1 3.803245,-1.183153"
       sodipodi:open="true" />
    <rect
       style="fill:#df984c;fill-opacity:1;stroke:#2c3e50;stroke-width:0.458999;stroke-linecap:round;stroke-linejoin:round;stroke-dasharray:none;stroke-opacity:1"
       id="rect18577"
       width="4.2809634"
       height="4.2809634"
       x="110.28265"
       y="-3.3605785"
       transform="rotate(45)" />
  </g>
</svg>
