<?xml version="1.0" encoding="UTF-8" standalone="no"?>
<!-- Created with Inkscape (http://www.inkscape.org/) -->

<svg
   width="62.750969mm"
   height="41.585609mm"
   viewBox="0 0 62.750969 41.585609"
   version="1.1"
   id="svg1033"
   inkscape:version="1.2.2 (b0a8486, 2022-12-01)"
   sodipodi:docname="Tablet.svg"
   xmlns:inkscape="http://www.inkscape.org/namespaces/inkscape"
   xmlns:sodipodi="http://sodipodi.sourceforge.net/DTD/sodipodi-0.dtd"
   xmlns:xlink="http://www.w3.org/1999/xlink"
   xmlns="http://www.w3.org/2000/svg"
   xmlns:svg="http://www.w3.org/2000/svg">
  <sodipodi:namedview
     id="namedview1035"
     pagecolor="#ffffff"
     bordercolor="#000000"
     borderopacity="0.25"
     inkscape:showpageshadow="2"
     inkscape:pageopacity="0.0"
     inkscape:pagecheckerboard="0"
     inkscape:deskcolor="#d1d1d1"
     inkscape:document-units="mm"
     showgrid="false"
     inkscape:zoom="4"
     inkscape:cx="116.125"
     inkscape:cy="117.125"
     inkscape:window-width="2560"
     inkscape:window-height="1371"
     inkscape:window-x="0"
     inkscape:window-y="0"
     inkscape:window-maximized="1"
     inkscape:current-layer="layer1" />
  <defs
     id="defs1030">
    <linearGradient
       inkscape:collect="always"
       xlink:href="#linearGradient2743"
       id="linearGradient2727"
       gradientUnits="userSpaceOnUse"
       x1="29.217854"
       y1="51.666"
       x2="50.692272"
       y2="77.126503"
       gradientTransform="matrix(2.3901514,0,0,1,15.786979,-49.572162)" />
    <linearGradient
       inkscape:collect="always"
       id="linearGradient2743">
      <stop
         style="stop-color:#7e7575;stop-opacity:1;"
         offset="0"
         id="stop2739" />
      <stop
         style="stop-color:#aaa1a1;stop-opacity:1;"
         offset="1"
         id="stop2741" />
    </linearGradient>
    <linearGradient
       inkscape:collect="always"
       xlink:href="#linearGradient2719"
       id="linearGradient2737"
       gradientUnits="userSpaceOnUse"
       gradientTransform="matrix(2.3200171,0,0,0.98518094,19.290927,-48.436172)"
       x1="29.217854"
       y1="51.666"
       x2="50.692272"
       y2="77.126503" />
    <linearGradient
       inkscape:collect="always"
       id="linearGradient2719">
      <stop
         style="stop-color:#897f7f;stop-opacity:1;"
         offset="0"
         id="stop2715" />
      <stop
         style="stop-color:#aaa1a1;stop-opacity:1;"
         offset="1"
         id="stop2717" />
    </linearGradient>
  </defs>
  <g
     inkscape:label="Layer 1"
     inkscape:groupmode="layer"
     id="layer1"
     transform="translate(-72.449279,14.500432)">
    <path
       id="path2723"
       style="fill:url(#linearGradient2727);fill-opacity:1;stroke:none;stroke-width:0.158751;stroke-linecap:round;stroke-linejoin:round;stroke-opacity:0.101961"
       d="m 73.147493,-4.601176 c 0,0 0.243504,-4.880565 10.415482,-7.799276 0.683497,-0.122602 4.011702,0.617756 4.011702,0.617756 0,0 -0.433108,-1.176118 0.217814,-1.598314 4.0965,-0.756247 9.129243,-1.119422 15.884409,-1.119422 5.211,0 10.45544,0.561369 14.05846,1.04066 -0.001,0.02414 0.52551,0.387909 0.52551,0.387909 0,0 1.09576,-0.102885 1.23515,-0.129785 15.74234,2.532171 15.10489,8.600451 15.10489,8.600451 l -0.18182,2.349288 -0.58493,0.224139 0.48232,1.101497 -0.4968,6.41871 0.36205,3.399343 c -2.32094,1.092752 -1.23827,1.932282 0.29166,2.738538 l 0.72685,6.824632 c 0,0 -1.12056,6.958321 -3.33394,7.448472 -1.04123,0.599189 -55.680532,1.551839 -57.107634,1.031868 -0.78255,-0.365865 -1.012683,-5.382145 -1.012683,-5.382145 l -0.59849,-6.779136 c -0.04223,-0.249439 1.758925,-0.575771 1.720845,-0.824979 -0.311155,-2.036226 -2.326303,-3.987794 -2.386841,-6.01006 -0.11131,-3.718118 0.06286,-7.115306 0.568421,-10.79906 0.04596,-0.23112 3.141051,-0.09534 3.141051,-0.09534 0,0 -3.141051,-0.466201 -3.141051,-0.687684 z"
       sodipodi:nodetypes="ccccscccccccccccccccsscccc" />
    <path
       id="path2735"
       style="fill:url(#linearGradient2737);fill-opacity:1;stroke:none;stroke-width:0.158751;stroke-linecap:round;stroke-linejoin:round;stroke-opacity:0.101961"
       d="m 74.968308,-4.131614 c 0,0 0.0153,-4.687517 9.888814,-7.562976 l 3.893987,0.608602 0.211433,-1.574629 c 3.976294,-0.74504 9.082408,-1.223555 15.639358,-1.223555 5.05809,0 9.26401,0.284751 12.7613,0.756939 -0.001,0.02378 0.51009,0.382161 0.51009,0.382161 0,0 1.06361,-0.101361 1.19891,-0.127862 15.28042,2.494647 15.5463,8.7413 15.5463,8.7413 l -0.17649,2.314473 -0.56776,0.220818 0.46817,1.085174 -0.48222,6.323591 0.35142,3.348967 c -2.25284,1.076559 -1.20193,1.903648 0.2831,2.697956 l 0.70553,6.723497 c 0,0 -1.08769,6.855205 -3.23612,7.338093 -1.01067,0.590309 -54.046695,1.528842 -55.431922,1.016577 -0.759587,-0.360444 -0.982966,-5.302387 -0.982966,-5.302387 l -0.580929,-6.678676 c -0.04099,-0.245742 1.707312,-0.567238 1.67035,-0.812753 C 76.336639,12.137645 74.38062,10.214997 74.321858,8.222699 74.213824,4.55968 74.477577,0.917681 74.968313,-2.711483 l 3.048884,-0.09393 -3.048884,-0.677494 z"
       sodipodi:nodetypes="ccccscccccccccccccccsscccc" />
  </g>
</svg>
